<svg width="26" height="24" viewBox="0 0 26 24" fill="none" xmlns="http://www.w3.org/2000/svg">
<path d="M12.9287 2C7.22355 2 2.60364 6.48 2.60364 12C2.60364 17.52 7.22355 22 12.9287 22C18.6441 22 23.2744 17.52 23.2744 12C23.2744 6.48 18.6441 2 12.9287 2ZM20.0911 8H17.0421C16.7114 6.75 16.236 5.55 15.6159 4.44C17.5176 5.07 19.0989 6.35 20.0911 8ZM12.939 4.04C13.7968 5.24 14.4686 6.57 14.9131 8H10.9649C11.4094 6.57 12.0812 5.24 12.939 4.04ZM4.93943 14C4.77407 13.36 4.67071 12.69 4.67071 12C4.67071 11.31 4.77407 10.64 4.93943 10H8.43278C8.3501 10.66 8.28809 11.32 8.28809 12C8.28809 12.68 8.3501 13.34 8.43278 14H4.93943ZM5.78693 16H8.83586C9.1666 17.25 9.64202 18.45 10.2621 19.56C8.36044 18.93 6.77913 17.66 5.78693 16ZM8.83586 8H5.78693C6.77913 6.34 8.36044 5.07 10.2621 4.44C9.64202 5.55 9.1666 6.75 8.83586 8ZM12.939 19.96C12.0812 18.76 11.4094 17.43 10.9649 16H14.9131C14.4686 17.43 13.7968 18.76 12.939 19.96ZM15.3575 14H10.5205C10.4275 13.34 10.3552 12.68 10.3552 12C10.3552 11.32 10.4275 10.65 10.5205 10H15.3575C15.4505 10.65 15.5228 11.32 15.5228 12C15.5228 12.68 15.4505 13.34 15.3575 14ZM15.6159 19.56C16.236 18.45 16.7114 17.25 17.0421 16H20.0911C19.0989 17.65 17.5176 18.93 15.6159 19.56ZM17.4452 14C17.5279 13.34 17.5899 12.68 17.5899 12C17.5899 11.32 17.5279 10.66 17.4452 10H20.9386C21.1039 10.64 21.2073 11.31 21.2073 12C21.2073 12.69 21.1039 13.36 20.9386 14H17.4452Z" fill="#BDBDBD"/>
</svg>
