<svg width="272" height="272" viewBox="0 0 272 272" fill="none" xmlns="http://www.w3.org/2000/svg">
<path d="M128.322 30.8218C100.654 32.41 74.7065 43.1617 53.9959 61.6195L86.0258 93.6494C98.0796 83.6145 112.715 77.5503 128.322 76.1243V30.8218Z" fill="#14976A"/>
<path d="M75.8717 103.797L43.8422 71.7673C25.3687 92.4722 14.6035 118.421 13.0053 146.097H58.3097C59.7452 130.487 65.8224 115.85 75.8717 103.797Z" fill="#14976A"/>
<path d="M212.69 146.097H257.995C256.396 118.421 245.632 92.4722 227.158 71.7673L195.128 103.797C205.178 115.849 211.255 130.487 212.69 146.097Z" fill="#14976A"/>
<path d="M212.68 160.452C211.674 171.507 208.519 180.728 204.788 188.125C208.428 193.738 211.462 198.482 213.467 201.633C218.927 210.213 217.719 221.228 210.527 228.42C208.781 230.166 206.787 231.573 204.625 232.612L212.085 240.072C213.489 241.476 215.329 242.178 217.169 242.178C219.01 242.178 220.849 241.476 222.253 240.072C243.75 218.578 256.285 190.53 258 160.452H212.68Z" fill="#14976A"/>
<path d="M58.3202 160.452H13C14.7155 190.53 27.2502 218.578 48.7466 240.073C50.1505 241.477 51.9904 242.179 53.8303 242.179C55.6702 242.179 57.5106 241.476 58.9145 240.073L80.6927 218.293C83.5002 215.485 83.5002 210.933 80.6927 208.125C75.0094 202.441 60.6937 186.53 58.3202 160.452Z" fill="#14976A"/>
<path d="M217.004 61.6195C196.293 43.1613 170.346 32.41 142.678 30.8218V76.1243C158.284 77.5503 172.92 83.6145 184.974 93.6494L217.004 61.6195Z" fill="#14976A"/>
<path d="M151.449 137.446C142.655 128.652 128.347 128.652 119.553 137.446C110.759 146.24 110.759 160.548 119.553 169.342C130.662 180.451 185.258 215.311 191.448 219.249C194.286 221.056 197.997 220.648 200.377 218.269C202.755 215.891 203.163 212.179 201.357 209.34C197.418 203.152 162.558 148.555 151.449 137.446Z" fill="#14976A"/>
</svg>
