<svg width="272" height="272" viewBox="0 0 272 272" fill="none" xmlns="http://www.w3.org/2000/svg">
<g clip-path="url(#clip0)">
<path d="M225.694 63.2603C175.953 13.5193 95.0464 13.5193 45.3054 63.2603C-4.43562 113.001 -4.43562 193.908 45.3054 243.649C49.8341 248.178 57.176 248.178 61.7047 243.649C66.2334 239.12 66.2334 231.779 61.7047 227.25C21.0206 186.566 21.0206 120.343 61.7047 79.6596C102.389 38.976 168.611 38.9755 209.295 79.6596C249.979 120.344 249.979 186.566 209.295 227.25C204.766 231.779 204.766 239.12 209.295 243.649C213.824 248.178 221.165 248.178 225.694 243.649C275.435 193.908 275.435 113.001 225.694 63.2603Z" fill="#14976A"/>
<path d="M192.892 96.059C161.244 64.3974 109.767 64.3974 78.1035 96.0605C46.4404 127.71 46.4404 179.187 78.1035 210.851C82.6322 215.38 89.9741 215.38 94.5028 210.851C99.0315 206.322 99.0315 198.98 94.5028 194.452C71.8971 171.846 71.8971 135.055 94.5008 112.461C117.108 89.8536 153.899 89.8536 176.493 112.458C199.1 135.055 199.1 171.846 176.495 194.452C171.966 198.98 171.966 206.322 176.495 210.851C181.023 215.38 188.365 215.38 192.894 210.851C224.557 179.188 224.557 127.711 192.892 96.059Z" fill="#14976A"/>
<path d="M135.501 118.666C116.283 118.666 100.714 134.236 100.714 153.454C100.714 172.671 116.284 188.241 135.501 188.241C154.719 188.241 170.289 172.671 170.289 153.454C170.289 134.236 154.719 118.666 135.501 118.666ZM135.501 165.049C129.092 165.049 123.905 159.863 123.905 153.453C123.905 147.044 129.092 141.857 135.501 141.857C141.91 141.857 147.097 147.044 147.097 153.453C147.097 159.863 141.91 165.049 135.501 165.049Z" fill="#14976A"/>
</g>
<defs>
<clipPath id="clip0">
<rect width="255" height="255" fill="white" transform="translate(8 9)"/>
</clipPath>
</defs>
</svg>
