<svg width="272" height="272" viewBox="0 0 272 272" fill="none" xmlns="http://www.w3.org/2000/svg">
<g clip-path="url(#clip0)">
<path d="M192.75 51C178.774 51 166.206 58.0875 159.118 69.963C156.882 73.6905 158.1 78.531 161.838 80.757C165.597 82.983 170.416 81.765 172.632 78.027C176.853 70.971 184.371 66.75 192.75 66.75C201.129 66.75 208.647 70.971 212.868 78.027C215.062 81.7335 219.882 82.9935 223.662 80.757C227.389 78.531 228.618 73.6905 226.381 69.963C219.294 58.0875 206.725 51 192.75 51Z" fill="#14976A"/>
<path d="M236.451 56.3025C239.129 59.694 244.074 60.303 247.508 57.594C250.92 54.8955 251.498 49.9395 248.799 46.527C235.212 29.349 214.79 19.5 192.75 19.5C170.71 19.5 150.288 29.349 136.701 46.5375C134.002 49.95 134.58 54.8955 137.992 57.6045C141.426 60.3135 146.371 59.715 149.049 56.313C159.643 42.9255 175.561 35.25 192.75 35.25C209.939 35.25 225.857 42.9255 236.451 56.3025Z" fill="#14976A"/>
<path d="M37.875 229.5H40.5V240C40.5 245.796 45.1935 250.5 51 250.5C56.8065 250.5 61.5 245.796 61.5 240V229.5H208.5V240C208.5 245.796 213.193 250.5 219 250.5C224.807 250.5 229.5 245.796 229.5 240V229.5H232.125C248.053 229.5 261 216.553 261 200.625V163.875C261 147.947 248.053 135 232.125 135H203.25V94.3125C203.25 88.5165 198.557 83.8125 192.75 83.8125C186.943 83.8125 182.25 88.5165 182.25 94.3125V135H37.875C21.9465 135 9 147.947 9 163.875V200.625C9 216.553 21.9465 229.5 37.875 229.5ZM229.5 182.25C229.5 190.944 222.444 198 213.75 198C205.056 198 198 190.944 198 182.25C198 173.556 205.056 166.5 213.75 166.5C222.444 166.5 229.5 173.556 229.5 182.25ZM108.75 166.5C117.444 166.5 124.5 173.556 124.5 182.25C124.5 190.944 117.444 198 108.75 198C100.056 198 93 190.944 93 182.25C93 173.556 100.056 166.5 108.75 166.5ZM56.25 166.5C64.944 166.5 72 173.556 72 182.25C72 190.944 64.944 198 56.25 198C47.556 198 40.5 190.944 40.5 182.25C40.5 173.556 47.556 166.5 56.25 166.5Z" fill="#14976A"/>
</g>
<defs>
<clipPath id="clip0">
<rect width="252" height="252" fill="white" transform="translate(9 9)"/>
</clipPath>
</defs>
</svg>
